<svg id="ekj10tMwOF81" xmlns="http://www.w3.org/2000/svg" xmlns:xlink="http://www.w3.org/1999/xlink" viewBox="0 0 300 300" shape-rendering="geometricPrecision" text-rendering="geometricPrecision"><style><![CDATA[#ekj10tMwOF817_tr {animation: ekj10tMwOF817_tr__tr 3000ms linear infinite normal forwards}@keyframes ekj10tMwOF817_tr__tr { 0% {transform: translate(90.163212px,142.904064px) rotate(0deg)} 3.333333% {transform: translate(90.163212px,142.904064px) rotate(10deg)} 6.666667% {transform: translate(90.163212px,142.904064px) rotate(20deg)} 10% {transform: translate(90.163212px,142.904064px) rotate(30deg)} 13.333333% {transform: translate(90.163212px,142.904064px) rotate(40deg)} 16.666667% {transform: translate(90.163212px,142.904064px) rotate(50deg)} 20% {transform: translate(90.163212px,142.904064px) rotate(60deg)} 23.333333% {transform: translate(90.163212px,142.904064px) rotate(70deg)} 26.666667% {transform: translate(90.163212px,142.904064px) rotate(80deg)} 30% {transform: translate(90.163212px,142.904064px) rotate(90deg)} 33.333333% {transform: translate(90.163212px,142.904064px) rotate(10deg)} 36.666667% {transform: translate(90.163212px,142.904064px) rotate(110deg)} 40% {transform: translate(90.163212px,142.904064px) rotate(120deg)} 43.333333% {transform: translate(90.163212px,142.904064px) rotate(130deg)} 46.666667% {transform: translate(90.163212px,142.904064px) rotate(140deg)} 50% {transform: translate(90.163212px,142.904064px) rotate(150deg)} 53.333333% {transform: translate(90.163212px,142.904064px) rotate(160deg)} 56.666667% {transform: translate(90.163212px,142.904064px) rotate(170deg)} 60% {transform: translate(90.163212px,142.904064px) rotate(180deg)} 63.333333% {transform: translate(90.163212px,142.904064px) rotate(190deg)} 66.666667% {transform: translate(90.163212px,142.904064px) rotate(200deg)} 70% {transform: translate(90.163212px,142.904064px) rotate(210deg)} 73.333333% {transform: translate(90.163212px,142.904064px) rotate(220deg)} 76.666667% {transform: translate(90.163212px,142.904064px) rotate(230deg)} 80% {transform: translate(90.163212px,142.904064px) rotate(240deg)} 83.333333% {transform: translate(90.163212px,142.904064px) rotate(250deg)} 86.666667% {transform: translate(90.163212px,142.904064px) rotate(260deg)} 90% {transform: translate(90.163212px,142.904064px) rotate(270deg)} 93.333333% {transform: translate(90.163212px,142.904064px) rotate(280deg)} 96.666667% {transform: translate(90.163212px,142.904064px) rotate(290deg)} 100% {transform: translate(90.163212px,142.904064px) rotate(300deg)}} #ekj10tMwOF826_tr {animation: ekj10tMwOF826_tr__tr 3000ms linear infinite normal forwards}@keyframes ekj10tMwOF826_tr__tr { 0% {transform: translate(209.191194px,142.904064px) rotate(0deg)} 3.333333% {transform: translate(209.191194px,142.904064px) rotate(10deg)} 6.666667% {transform: translate(209.191194px,142.904064px) rotate(20deg)} 10% {transform: translate(209.191194px,142.904064px) rotate(30deg)} 13.333333% {transform: translate(209.191194px,142.904064px) rotate(40deg)} 16.666667% {transform: translate(209.191194px,142.904064px) rotate(50deg)} 20% {transform: translate(209.191194px,142.904064px) rotate(60deg)} 23.333333% {transform: translate(209.191194px,142.904064px) rotate(70deg)} 26.666667% {transform: translate(209.191194px,142.904064px) rotate(80deg)} 30% {transform: translate(209.191194px,142.904064px) rotate(90deg)} 33.333333% {transform: translate(209.191194px,142.904064px) rotate(10deg)} 36.666667% {transform: translate(209.191194px,142.904064px) rotate(110deg)} 40% {transform: translate(209.191194px,142.904064px) rotate(120deg)} 43.333333% {transform: translate(209.191194px,142.904064px) rotate(130deg)} 46.666667% {transform: translate(209.191194px,142.904064px) rotate(140deg)} 50% {transform: translate(209.191194px,142.904064px) rotate(150deg)} 53.333333% {transform: translate(209.191194px,142.904064px) rotate(160deg)} 56.666667% {transform: translate(209.191194px,142.904064px) rotate(170deg)} 60% {transform: translate(209.191194px,142.904064px) rotate(180deg)} 63.333333% {transform: translate(209.191194px,142.904064px) rotate(190deg)} 66.666667% {transform: translate(209.191194px,142.904064px) rotate(200deg)} 70% {transform: translate(209.191194px,142.904064px) rotate(210deg)} 73.333333% {transform: translate(209.191194px,142.904064px) rotate(220deg)} 76.666667% {transform: translate(209.191194px,142.904064px) rotate(230deg)} 80% {transform: translate(209.191194px,142.904064px) rotate(240deg)} 83.333333% {transform: translate(209.191194px,142.904064px) rotate(250deg)} 86.666667% {transform: translate(209.191194px,142.904064px) rotate(260deg)} 90% {transform: translate(209.191194px,142.904064px) rotate(270deg)} 93.333333% {transform: translate(209.191194px,142.904064px) rotate(280deg)} 96.666667% {transform: translate(209.191194px,142.904064px) rotate(290deg)} 100% {transform: translate(209.191194px,142.904064px) rotate(300deg)}}]]></style><rect width="276.386404" height="172.629696" rx="15" ry="15" transform="translate(11.806798 63.685152)" fill="#111212" stroke-width="0"/><ellipse rx="39.396326" ry="39.396326" transform="matrix(1.327886 0 0 1.327886 90.164114 142.477803)" fill="#200e01" stroke-width="0"/><ellipse rx="39.396326" ry="39.396326" transform="matrix(1.053037 0 0 1.053037 209.191194 142.477803)" fill="#200e01" stroke-width="0"/><rect width="245.917648" height="122.958824" rx="10" ry="10" transform="matrix(1 0 0 0.933883 27.041176 77.880762)" fill="#f1882e" stroke-width="0"/><rect width="61.935837" height="25.404716" rx="0" ry="0" transform="matrix(.051182 0 0-1.4 10.221798 210.493219)" fill="#030304" stroke-width="0"/><rect width="61.935837" height="25.404716" rx="0" ry="0" transform="matrix(.051182 0 0-1.4 286.608202 210.493219)" fill="#030304" stroke-width="0"/><ellipse rx="4.25916" ry="4.25916" transform="translate(22.115073 75.146043)" fill="#e0e2e4" stroke-width="0"/><ellipse rx="4.25916" ry="4.25916" transform="translate(277.217984 75.146043)" fill="#e0e2e4" stroke-width="0"/><ellipse rx="4.25916" ry="4.25916" transform="translate(277.217984 224.902979)" fill="#e0e2e4" stroke-width="0"/><ellipse rx="4.25916" ry="4.25916" transform="translate(22.115073 224.902979)" fill="#e0e2e4" stroke-width="0"/><g><path d="M48.26175,236.406109l16.308816-35.566602h85.429436v35.566602h-101.738252" fill="#030304" stroke-width="0.6"/><path d="M48.26175,236.406109l16.308816-35.566602h85.429436v35.566602h-101.738252" transform="matrix(-1 0 0 1 300.000002-.091261)" fill="#030304" stroke-width="0.6"/></g><ellipse rx="4.25916" ry="4.25916" transform="translate(150 214.272387)" fill="#e0e2e4" stroke-width="0"/><rect width="199.150016" height="48.463173" rx="8" ry="8" transform="matrix(.874089 0 0 0.848634 62.962581 121.914055)" stroke="#000" stroke-width="10"/><g id="ekj10tMwOF817_tr" transform="translate(90.163212,142.904064) rotate(0)"><g transform="translate(-90.163212,-142.904064)"><ellipse rx="18.899214" ry="18.899214" transform="matrix(.862488 0 0 0.862488 90.164114 142.477803)" fill="#eeeff1" stroke-width="0"/><g transform="matrix(1.153969 0 0 1.153969-13.882339-21.122575)"><rect width="30" height="30" rx="6" ry="6" transform="matrix(.081775 0 0 0.151544 88.937489 154.097903)" stroke-width="0" stroke-linecap="round" stroke-linejoin="round"/><rect width="30" height="30" rx="6" ry="6" transform="matrix(.050521-.064302 0.119164 0.093624 75.367594 133.532676)" stroke-width="0" stroke-linecap="round" stroke-linejoin="round"/><rect width="30" height="30" rx="6" ry="6" transform="matrix(.049219 0.065304-.12102 0.091213 103.489365 131.645906)" stroke-width="0" stroke-linecap="round" stroke-linejoin="round"/><rect width="30" height="30" rx="6" ry="6" transform="matrix(.050012-.064699 0.119899 0.092681 99.863688 149.601429)" stroke-width="0" stroke-linecap="round" stroke-linejoin="round"/><rect width="30" height="30" rx="6" ry="6" transform="matrix(-.049419-.065153 0.12074-.091582 76.843045 152.35103)" stroke-width="0" stroke-linecap="round" stroke-linejoin="round"/><rect width="30" height="30" rx="6" ry="6" transform="matrix(.081775 0 0 0.151544 88.937489 125.638338)" stroke-width="0" stroke-linecap="round" stroke-linejoin="round"/></g></g></g><g id="ekj10tMwOF826_tr" transform="translate(209.191194,142.904064) rotate(0)"><g transform="translate(-90.163212,-142.904064)"><ellipse rx="18.899214" ry="18.899214" transform="matrix(.862488 0 0 0.862488 90.164114 142.477803)" fill="#eeeff1" stroke-width="0"/><g transform="matrix(1.153969 0 0 1.153969-13.882339-21.122575)"><rect width="30" height="30" rx="6" ry="6" transform="matrix(.081775 0 0 0.151544 88.937489 154.097903)" stroke-width="0" stroke-linecap="round" stroke-linejoin="round"/><rect width="30" height="30" rx="6" ry="6" transform="matrix(.050521-.064302 0.119164 0.093624 75.367594 133.532676)" stroke-width="0" stroke-linecap="round" stroke-linejoin="round"/><rect width="30" height="30" rx="6" ry="6" transform="matrix(.049219 0.065304-.12102 0.091213 103.489365 131.645906)" stroke-width="0" stroke-linecap="round" stroke-linejoin="round"/><rect width="30" height="30" rx="6" ry="6" transform="matrix(.050012-.064699 0.119899 0.092681 99.863688 149.601429)" stroke-width="0" stroke-linecap="round" stroke-linejoin="round"/><rect width="30" height="30" rx="6" ry="6" transform="matrix(-.049419-.065153 0.12074-.091582 76.843045 152.35103)" stroke-width="0" stroke-linecap="round" stroke-linejoin="round"/><rect width="30" height="30" rx="6" ry="6" transform="matrix(.081775 0 0 0.151544 88.937489 125.638338)" stroke-width="0" stroke-linecap="round" stroke-linejoin="round"/></g></g></g><rect width="70.884729" height="23.482808" rx="6" ry="6" transform="matrix(1 0 0 1.388278 113.885378 126.17747)" fill="rgba(255,255,255,0.18)" stroke-width="0"/></svg>